<svg width="24" height="17" viewBox="0 0 24 17" fill="none" xmlns="http://www.w3.org/2000/svg">
<path d="M1.36422 16.3706H16.3706C17.1209 16.3706 17.7348 15.7567 17.7348 15.0064C17.7348 14.2561 17.1209 13.6422 16.3706 13.6422H1.36422C0.613898 13.6422 0 14.2561 0 15.0064C0 15.7567 0.613898 16.3706 1.36422 16.3706ZM1.36422 9.54952H12.278C13.0283 9.54952 13.6422 8.93563 13.6422 8.18531C13.6422 7.43499 13.0283 6.82109 12.278 6.82109H1.36422C0.613898 6.82109 0 7.43499 0 8.18531C0 8.93563 0.613898 9.54952 1.36422 9.54952ZM0 1.36422C0 2.11454 0.613898 2.72844 1.36422 2.72844H16.3706C17.1209 2.72844 17.7348 2.11454 17.7348 1.36422C17.7348 0.613898 17.1209 0 16.3706 0H1.36422C0.613898 0 0 0.613898 0 1.36422ZM23.601 12.1143L19.672 8.18531L23.601 4.25636C24.133 3.72431 24.133 2.86486 23.601 2.33281C23.0689 1.80077 22.2095 1.80077 21.6774 2.33281L16.7799 7.23035C16.2478 7.7624 16.2478 8.62186 16.7799 9.1539L21.6774 14.0514C22.2095 14.5835 23.0689 14.5835 23.601 14.0514C24.1194 13.5194 24.133 12.6463 23.601 12.1143Z" fill="white"/>
</svg>
