<svg width="24" height="24" viewBox="0 0 24 24" fill="none" xmlns="http://www.w3.org/2000/svg">
<path d="M12 24C18.2182 24 23.3345 19.2655 23.9455 13.2C24.0109 12.5564 23.4982 12 22.8545 12C22.2982 12 21.8291 12.4145 21.7745 12.96C21.2945 17.9345 17.0945 21.8182 12 21.8182C8.59636 21.8182 5.59636 20.0836 3.84 17.4545H5.45455C6.05455 17.4545 6.54545 16.9636 6.54545 16.3636C6.54545 15.7636 6.05455 15.2727 5.45455 15.2727H1.09091C0.490909 15.2727 0 15.7636 0 16.3636V20.7273C0 21.3273 0.490909 21.8182 1.09091 21.8182C1.69091 21.8182 2.18182 21.3273 2.18182 20.7273V18.9055C4.35273 21.9818 7.94182 24 12 24ZM12 0C5.78182 0 0.665455 4.73455 0.0545454 10.8C-5.28314e-08 11.4436 0.501818 12 1.14545 12C1.70182 12 2.17091 11.5855 2.22545 11.04C2.70545 6.06545 6.90545 2.18182 12 2.18182C15.4036 2.18182 18.4036 3.91636 20.16 6.54545H18.5455C17.9455 6.54545 17.4545 7.03636 17.4545 7.63636C17.4545 8.23636 17.9455 8.72727 18.5455 8.72727H22.9091C23.5091 8.72727 24 8.23636 24 7.63636V3.27273C24 2.67273 23.5091 2.18182 22.9091 2.18182C22.3091 2.18182 21.8182 2.67273 21.8182 3.27273V5.09455C19.6473 2.01818 16.0582 0 12 0ZM11.04 5.32364C11.04 4.78909 11.4764 4.36364 12 4.36364C12.5236 4.36364 12.96 4.78909 12.96 5.32364V5.72727C14.1273 5.93455 14.8691 6.55636 15.3164 7.14545C15.6873 7.62545 15.4909 8.32364 14.9236 8.56364C14.5309 8.72727 14.0727 8.59636 13.8109 8.25818C13.5055 7.84364 12.96 7.41818 12.0655 7.41818C11.3018 7.41818 10.0909 7.82182 10.0909 8.93455C10.0909 9.97091 11.0291 10.3636 12.9709 11.0073C15.5891 11.9127 16.2545 13.2436 16.2545 14.7709C16.2545 17.6291 13.5273 18.1855 12.96 18.2836V18.6873C12.96 19.2109 12.5345 19.6473 12 19.6473C11.4655 19.6473 11.04 19.2218 11.04 18.6873V18.2291C10.3527 18.0655 8.93455 17.5636 8.10546 15.9382C7.85455 15.4582 8.13818 14.8255 8.64 14.6291C9.08727 14.4545 9.62182 14.6182 9.85091 15.0436C10.2 15.7091 10.8873 16.5382 12.1636 16.5382C13.1782 16.5382 14.3236 16.0145 14.3236 14.7818C14.3236 13.7345 13.56 13.1891 11.8364 12.5673C10.6364 12.1418 8.18182 11.4436 8.18182 8.95636C8.18182 8.84727 8.19273 6.33818 11.04 5.72727V5.32364Z" fill="#8f51e0"/>
</svg>
