<svg width="146" height="44" viewBox="0 0 146 44" fill="none" xmlns="http://www.w3.org/2000/svg">
<path d="M0 21.6118C0 33.5176 9.91887 43.3529 21.9259 43.3529C33.933 43.3529 43.8518 33.5176 43.8518 21.6118C42.5 8.5 33.933 0 21.9259 0C9.91887 0 0 9.70588 0 21.6118ZM30.0176 31.7059C24.9277 28.6 18.4021 27.8235 10.8325 29.5059C9.0053 29.7647 8.74428 27.1765 10.3104 26.9176C18.6631 24.9765 25.7107 25.8824 31.4533 29.3765C32.8889 30.2824 31.4533 32.4824 30.0176 31.7059ZM32.2363 25.8824C26.3633 22.2588 17.358 21.2235 10.4409 23.2941C8.22223 23.9412 7.43915 20.5765 9.52734 20.0588C17.4885 17.7294 27.2769 18.8941 34.0635 23.0353C35.8906 24.2 34.0635 27.0471 32.2363 25.8824ZM9.39683 16.6941C7.17813 17.4706 5.74251 13.7176 8.22223 12.8118C15.9224 10.4824 28.9735 10.8706 37.0652 15.6588C39.2839 16.8235 37.1958 20.4471 34.8465 19.1529C27.7989 15.0118 16.0529 14.6235 9.39683 16.6941ZM58.8607 28.4706C56.642 28.4706 54.5538 27.6941 52.7266 25.8824C52.5961 25.8824 52.5961 26.0118 52.5961 26.0118L50.5079 28.4706C50.3774 28.6 50.3774 28.7294 50.5079 28.8588C52.8571 30.9294 55.7284 31.9647 58.8607 31.9647C63.2981 31.9647 66.0388 29.5059 66.0388 25.8824C66.0388 22.7765 64.0811 21.0941 59.5132 19.9294C55.7284 19.0235 55.0758 18.3765 55.0758 17.0824C55.0758 15.7882 56.381 15.0118 58.0776 15.0118C59.7743 15.0118 61.3404 15.6588 63.1676 16.9529C63.1676 16.9529 63.2981 17.0824 63.4286 17.0824C63.5591 17.0824 63.5591 16.9529 63.5591 16.9529L65.3863 14.3647C65.5168 14.2353 65.5168 14.2353 65.3863 14.1059C63.2981 12.4235 60.8183 11.5176 58.0776 11.5176C54.0318 11.5176 51.1605 13.9765 51.1605 17.4706C51.1605 21.2235 53.7707 22.3882 57.9471 23.4235C61.6014 24.2 62.1235 24.9765 62.1235 26.2706C62.1235 27.6941 60.8184 28.4706 58.8607 28.4706ZM71.2593 18.5059V16.8235C71.2593 16.6941 71.1288 16.5647 70.9982 16.5647H67.6049C67.4744 16.5647 67.3439 16.6941 67.3439 16.8235V35.8471C67.3439 35.9765 67.4744 36.1059 67.6049 36.1059H70.9982C71.1288 36.1059 71.2593 35.9765 71.2593 35.8471V29.8941C72.5644 31.3176 74 31.9647 75.9577 31.9647C79.4815 31.9647 83.0053 29.2471 83.0053 24.0706C83.0053 18.8941 79.4815 16.3059 75.9577 16.3059C74 16.3059 72.5644 16.9529 71.2593 18.5059ZM75.1746 28.6C72.8254 28.6 71.1288 26.6588 71.1288 24.0706C71.1288 21.4824 72.8254 19.6706 75.1746 19.6706C77.5238 19.6706 79.09 21.4824 79.09 24.0706C79.09 26.6588 77.5238 28.6 75.1746 28.6ZM84.0494 24.2C84.0494 28.6 87.5732 31.9647 92.1411 31.9647C96.709 31.9647 100.233 28.4706 100.233 24.0706C100.233 19.6706 96.8395 16.3059 92.2716 16.3059C87.7037 16.3059 84.0494 19.8 84.0494 24.2ZM87.9647 24.0706C87.9647 21.4824 89.6614 19.6706 92.1411 19.6706C94.6208 19.6706 96.448 21.6118 96.448 24.2C96.448 26.7882 94.7513 28.6 92.2716 28.6C89.7919 28.6 87.9647 26.6588 87.9647 24.0706ZM106.236 16.5647V12.8118C106.236 12.6824 106.236 12.5529 106.106 12.5529H102.713C102.582 12.5529 102.452 12.6824 102.452 12.8118V16.5647H100.755C100.624 16.5647 100.494 16.6941 100.494 16.8235V19.6706C100.494 19.8 100.624 19.9294 100.755 19.9294H102.452V27.4353C102.452 30.4118 103.887 31.9647 106.889 31.9647C108.063 31.9647 109.238 31.7059 110.152 31.1882C110.282 31.1882 110.282 31.0588 110.282 30.9294V28.2118C110.282 28.0824 110.282 27.9529 110.152 27.9529H109.891C109.238 28.3412 108.455 28.4706 107.802 28.4706C106.758 28.4706 106.236 27.9529 106.236 26.9176V19.9294H110.152C110.282 19.9294 110.413 19.8 110.413 19.6706V16.8235C110.413 16.6941 110.282 16.5647 110.152 16.5647H106.236ZM123.072 16.1765C123.072 14.7529 123.594 14.2353 124.769 14.2353C125.422 14.2353 126.074 14.2353 126.727 14.4941H126.857C126.857 14.4941 126.988 14.3647 126.988 14.2353V11.5176C126.988 11.3882 126.988 11.2588 126.857 11.2588C126.205 11 125.291 10.8706 123.986 10.8706C120.854 10.8706 119.287 12.6824 119.287 15.9176V16.5647H117.591C117.46 16.5647 117.33 16.6941 117.33 16.8235V19.6706C117.33 19.8 117.46 19.9294 117.591 19.9294H119.287V31.4471C119.287 31.5765 119.418 31.7059 119.549 31.7059H122.942C123.072 31.7059 123.072 31.5765 123.072 31.4471V19.9294H126.335L131.164 31.4471C130.642 32.6118 130.12 32.8706 129.337 32.8706C128.684 32.8706 128.032 32.7412 127.379 32.3529H127.249L127.118 32.4823L125.944 34.9412C125.944 35.0706 125.944 35.3294 126.074 35.3294C127.249 35.9765 128.293 36.2353 129.598 36.2353C132.078 36.2353 133.513 35.0706 134.688 31.9647L140.561 16.9529V16.6941C140.561 16.5647 140.43 16.5647 140.3 16.5647H136.776C136.646 16.5647 136.646 16.6941 136.646 16.8235L132.991 26.9176L129.076 16.8235C129.076 16.6941 128.945 16.5647 128.815 16.5647H123.072V16.1765ZM112.24 16.5647C112.109 16.5647 111.979 16.6941 111.979 16.8235V31.4471C111.979 31.5765 112.109 31.7059 112.24 31.7059H115.633C115.764 31.7059 115.764 31.5765 115.764 31.4471V16.8235C115.764 16.6941 115.764 16.5647 115.633 16.5647H112.24ZM111.457 12.2941C111.457 13.5882 112.631 14.7529 113.937 14.7529C115.242 14.7529 116.286 13.5882 116.286 12.2941C116.286 11 115.242 9.9647 113.937 9.9647C112.631 9.9647 111.457 11 111.457 12.2941ZM143.432 21.2235C144.737 21.2235 145.912 20.1882 145.912 18.8941C145.912 17.6 144.737 16.5647 143.432 16.5647C142.127 16.5647 141.083 17.6 141.083 18.8941C141.083 20.1882 142.127 21.2235 143.432 21.2235ZM143.432 16.8235C144.607 16.8235 145.651 17.7294 145.651 18.8941C145.651 20.0588 144.607 20.9647 143.432 20.9647C142.258 20.9647 141.344 20.0588 141.344 18.8941C141.344 17.7294 142.258 16.8235 143.432 16.8235ZM143.954 19.1529C144.346 19.0235 144.607 18.7647 144.607 18.3765C144.607 17.8588 144.085 17.6 143.563 17.6H142.519V20.0588H143.041V19.2824H143.563L144.085 20.0588H144.737L143.954 19.1529ZM143.563 17.9882C143.824 17.9882 144.085 18.1176 144.085 18.3765C144.085 18.6353 143.824 18.7647 143.563 18.7647H143.041V17.9882H143.563Z" fill="white"/>
</svg>
