<svg width="294" height="112" viewBox="0 0 294 112" fill="none" xmlns="http://www.w3.org/2000/svg">
<path d="M1 87.5C4 88.5 11.2861 89.2403 18.7763 81.3097C28.1391 71.3964 52.9229 36.6999 79.9098 56.5265C90.9248 65.5113 112.588 63.5025 122.868 56.5265C129.106 52.2936 141.043 45.6847 150.406 50.4683C171.848 61.4231 191.712 26.7865 204.93 11.9166C219.953 -4.98315 258.353 -5.53395 292.5 33.9461" stroke="#8438FF" stroke-width="2" stroke-linecap="round"/>
<path d="M18.7763 81.3097C11.2861 89.2403 4 88.5 1 87.5V112H292.5V33.9461C258.353 -5.53395 219.953 -4.98315 204.93 11.9166C191.712 26.7865 171.848 61.4231 150.406 50.4683C141.043 45.6847 129.106 52.2936 122.868 56.5265C112.588 63.5025 90.9248 65.5113 79.9098 56.5265C52.9229 36.6999 28.1391 71.3964 18.7763 81.3097Z" fill="url(#paint0_linear_36_748)" fill-opacity="0.5"/>
<circle cx="141.5" cy="49" r="4.5" fill="#8438FF" stroke="white"/>
<rect x="111.5" y="1" width="60.2963" height="28.7778" rx="7" fill="#8438FF"/>
<path d="M143.734 33.2C142.503 35.3333 141.887 36.4 140.963 36.4C140.039 36.4 139.423 35.3333 138.192 33.2L137.207 31.4944C135.975 29.3611 135.359 28.2944 135.821 27.4944C136.283 26.6944 137.515 26.6944 139.978 26.6944L141.948 26.6944C144.411 26.6944 145.643 26.6944 146.105 27.4944C146.566 28.2944 145.951 29.3611 144.719 31.4944L143.734 33.2Z" fill="#8438FF"/>
<defs>
<linearGradient id="paint0_linear_36_748" x1="121.5" y1="6" x2="137" y2="121.5" gradientUnits="userSpaceOnUse">
<stop stop-color="#8438FF"/>
<stop offset="1" stop-color="white" stop-opacity="0"/>
</linearGradient>
</defs>
</svg>
