<svg width="24" height="24" viewBox="0 0 24 24" fill="none" xmlns="http://www.w3.org/2000/svg">
<path d="M16.8884 0.333344H7.11171C2.86504 0.333344 0.333374 2.86501 0.333374 7.11168V16.8767C0.333374 21.135 2.86504 23.6667 7.11171 23.6667H16.8767C21.1234 23.6667 23.655 21.135 23.655 16.8883V7.11168C23.6667 2.86501 21.135 0.333344 16.8884 0.333344ZM9.56171 16.8883C9.56171 17.635 8.95504 18.2417 8.19671 18.2417C7.45004 18.2417 6.84337 17.635 6.84337 16.8883V13.085C6.84337 12.3383 7.45004 11.7317 8.19671 11.7317C8.95504 11.7317 9.56171 12.3383 9.56171 13.085V16.8883ZM17.1567 16.8883C17.1567 17.635 16.55 18.2417 15.8034 18.2417C15.045 18.2417 14.4384 17.635 14.4384 16.8883V7.11168C14.4384 6.36501 15.045 5.75834 15.8034 5.75834C16.55 5.75834 17.1567 6.36501 17.1567 7.11168V16.8883Z" fill="white"/>
</svg>
