<svg width="100" height="100" viewBox="0 0 100 100" fill="none" xmlns="http://www.w3.org/2000/svg">
<path d="M39.9019 35.9271L34.8373 65.648H42.9373L48.0061 35.9271H39.9019Z" fill="white"/>
<path d="M28.046 35.9604L20.1126 56.2292L19.2668 53.1687C17.7022 49.4812 13.2605 44.1854 8.04596 40.8479L15.3001 65.6333L23.871 65.6187L36.6272 35.9542L28.046 35.9604Z" fill="white"/>
<path d="M16.1917 38.0875C15.7208 36.2771 14.3563 35.7375 12.6625 35.6729H0.104167L0 36.2646C9.77292 38.6354 16.2396 44.3479 18.9229 51.2167L16.1917 38.0875Z" fill="white"/>
<path d="M64.4229 41.625C67.0729 41.5834 68.9937 42.1625 70.4854 42.7625L71.2166 43.1063L72.3124 36.6646C70.7083 36.0625 68.1937 35.4167 65.0562 35.4167C57.052 35.4167 51.4104 39.4479 51.3666 45.225C51.3145 49.4938 55.3854 51.8771 58.4604 53.3C61.6166 54.7584 62.6749 55.6854 62.6604 56.9875C62.6354 58.9771 60.1437 59.8896 57.8166 59.8896C54.5729 59.8896 52.8499 59.4417 50.1895 58.3334L49.1458 57.8584L48.0062 64.5104C49.902 65.3417 53.3999 66.0563 57.0312 66.0938C65.5458 66.0938 71.0791 62.1104 71.1374 55.9375C71.1729 52.5604 69.0124 49.9834 64.3312 47.8688C61.4979 46.4896 59.7645 45.5729 59.7812 44.1813C59.7812 42.9459 61.252 41.625 64.4229 41.625Z" fill="white"/>
<path d="M93.1001 35.9604H86.8417C84.898 35.9604 83.4521 36.4896 82.598 38.4271L70.5709 65.6646H79.0771C79.0771 65.6646 80.4646 62.0021 80.7792 61.2C81.7105 61.2 89.975 61.2125 91.1521 61.2125C91.3938 62.25 92.1396 65.6646 92.1396 65.6646H99.6542L93.1001 35.9604ZM83.1105 55.1167C83.7771 53.4104 86.3376 46.8105 86.3376 46.8105C86.2938 46.8917 86.998 45.0917 87.4167 43.9729L87.9626 46.5355C87.9626 46.5355 89.5146 53.6313 89.8396 55.1167H83.1105Z" fill="white"/>
</svg>
